HIERARCHY
ROOT Hips
{
	OFFSET 0.000000 0.000000 0.000000
	CHANNELS 6 Xposition Yposition Zposition Xrotation Yrotation Zrotation
	JOINT LeftUpLeg_virtual
	{
		OFFSET 0.000000 0.000000 0.000000
		CHANNELS 3 Xrotation Yrotation Zrotation
		JOINT LeftUpLeg
		{
			OFFSET 13.026900 -6.336304 -1.092800
			CHANNELS 3 Xrotation Yrotation Zrotation
			JOINT LeftLeg
			{
				OFFSET 0.524474 -46.096886 9.782700
				CHANNELS 3 Xrotation Yrotation Zrotation
				JOINT LeftFoot
				{
					OFFSET -0.524474 -53.427422 -12.948200
					CHANNELS 3 Xrotation Yrotation Zrotation
					JOINT LeftToeBase
					{
						OFFSET 0.192200 -14.009700 16.364100
						CHANNELS 3 Xrotation Yrotation Zrotation
						JOINT LeftToe_End
						{
							OFFSET -1.784700 -0.561700 9.474800
							CHANNELS 3 Xrotation Yrotation Zrotation
							End Site
							{
								OFFSET 0 0 0
							}
						}
					}
				}
			}
		}
	}
	JOINT RightUpLeg_virtual
	{
		OFFSET 0.000000 0.000000 0.000000
		CHANNELS 3 Xrotation Yrotation Zrotation
		JOINT RightUpLeg
		{
			OFFSET -12.883000 -6.336304 -1.092800
			CHANNELS 3 Xrotation Yrotation Zrotation
			JOINT RightLeg
			{
				OFFSET -0.524587 -46.096825 9.782800
				CHANNELS 3 Xrotation Yrotation Zrotation
				JOINT RightFoot
				{
					OFFSET 0.524587 -53.427383 -12.948300
					CHANNELS 3 Xrotation Yrotation Zrotation
					JOINT RightToeBase
					{
						OFFSET -0.192200 -14.009700 16.364100
						CHANNELS 3 Xrotation Yrotation Zrotation
						JOINT RightToe_End
						{
							OFFSET 1.784700 -0.561700 9.474800
							CHANNELS 3 Xrotation Yrotation Zrotation
							End Site
							{
								OFFSET 0 0 0
							}
						}
					}
				}
			}
		}
	}
	JOINT Spine_virtual
	{
		OFFSET 0.000000 0.000000 0.000000
		CHANNELS 3 Xrotation Yrotation Zrotation
		JOINT Spine
		{
			OFFSET 0.072000 7.257294 -0.789700
			CHANNELS 3 Xrotation Yrotation Zrotation
			JOINT Spine1
			{
				OFFSET 0.000000 12.508769 -0.658067
				CHANNELS 3 Xrotation Yrotation Zrotation
				JOINT Spine1_split
				{
					OFFSET 0.000000 12.508769 -0.658067
					CHANNELS 3 Xrotation Yrotation Zrotation
					JOINT Spine2
					{
						OFFSET 0.000000 12.508769 -0.658067
						CHANNELS 3 Xrotation Yrotation Zrotation
						JOINT Neck_virtual
						{
							OFFSET 0.000000 0.000000 0.000000
							CHANNELS 3 Xrotation Yrotation Zrotation
							JOINT Neck
							{
								OFFSET 0.000000 14.033295 7.520400
								CHANNELS 3 Xrotation Yrotation Zrotation
								JOINT Head
								{
									OFFSET 0.000000 8.198502 5.703100
									CHANNELS 3 Xrotation Yrotation Zrotation
									JOINT HeadTop_End
									{
										OFFSET 0.000000 17.760803 13.332701
										CHANNELS 3 Xrotation Yrotation Zrotation
										End Site
										{
											OFFSET 0 0 0
										}
									}
								}
							}
						}
						JOINT LeftShoulder_virtual
						{
							OFFSET 0.000000 0.000000 0.000000
							CHANNELS 3 Xrotation Yrotation Zrotation
							JOINT LeftShoulder
							{
								OFFSET 6.292450 5.785301 -0.669000
								CHANNELS 3 Xrotation Yrotation Zrotation
								JOINT LeftShoulder_split
								{
									OFFSET 6.292450 5.785301 -0.669000
									CHANNELS 3 Xrotation Yrotation Zrotation
									JOINT LeftArm
									{
										OFFSET 13.907140 -6.093903 1.965100
										CHANNELS 3 Xrotation Yrotation Zrotation
										JOINT LeftForeArm
										{
											OFFSET 34.140198 0.000000 0.000000
											CHANNELS 3 Xrotation Yrotation Zrotation
											JOINT LeftHand
											{
												OFFSET 40.960209 0.000000 0.000000
												CHANNELS 3 Xrotation Yrotation Zrotation
												End Site
												{
													OFFSET 0 0 0
												}
											}
										}
									}
								}
							}
						}
						JOINT RightShoulder_virtual
						{
							OFFSET 0.000000 0.000000 0.000000
							CHANNELS 3 Xrotation Yrotation Zrotation
							JOINT RightShoulder
							{
								OFFSET -6.292450 5.785301 -0.669000
								CHANNELS 3 Xrotation Yrotation Zrotation
								JOINT RightShoulder_split
								{
									OFFSET -6.292450 5.785301 -0.669000
									CHANNELS 3 Xrotation Yrotation Zrotation
									JOINT RightArm
									{
										OFFSET -13.907140 -6.093903 1.965100
										CHANNELS 3 Xrotation Yrotation Zrotation
										JOINT RightForeArm
										{
											OFFSET -34.140198 0.000000 0.000000
											CHANNELS 3 Xrotation Yrotation Zrotation
											JOINT RightHand
											{
												OFFSET -40.960209 0.000000 0.000000
												CHANNELS 3 Xrotation Yrotation Zrotation
												End Site
												{
													OFFSET 0 0 0
												}
											}
										}
									}
								}
							}
						}
					}
				}
			}
		}
	}
}
MOTION
Frames: 4
Frame Time: 0.03333333
9.887713 107.920906 -6.316948 0.000000 0.000000 0.000000 9.915894 -31.261052 -17.336111 -29.916283 -4.887397 27.413683 36.688091 3.906581 9.171312 -8.448000 28.285406 -16.065425 -0.679529 0.170818 -0.351387 0.000000 0.000000 0.000000 11.889869 -30.619741 -18.030330 -27.622605 0.242831 22.409301 12.828757 1.140172 4.795809 6.140174 13.294556 -7.434288 -2.986685 2.381893 -0.744080 0.000000 0.000000 0.000000 8.244652 -32.997142 -18.298941 17.143271 -4.553928 14.549039 13.978552 -0.566486 10.455629 1.624129 -1.374837 0.674549 0.000000 0.000000 0.000000 12.732448 -0.705303 9.470548 -9.257409 -6.079971 3.204085 36.645225 -14.515699 30.399434 0.000000 0.000000 0.000000 14.255123 -1.245273 9.624755 2.411783 -19.916021 -11.500480 0.904646 -1.051839 -0.441841 -35.466136 -27.225201 -56.939746 -0.937870 -14.848674 -1.456384 0.000000 0.000000 0.000000 12.313758 -1.056360 9.918482 2.449181 6.864016 11.502604 -4.584830 2.716229 -0.667237 0.515451 40.765458 26.611109 1.789162 22.789421 1.260113 0.000000 0.000000 0.000000 
9.715482 107.921051 -6.273384 0.000000 0.000000 0.000000 9.893567 -30.934876 -17.330599 -30.102805 -4.738743 27.541204 36.699740 3.832232 9.180230 -8.448900 27.972323 -16.040542 -0.601888 0.169485 -0.356860 0.000000 0.000000 0.000000 11.856471 -30.247076 -18.028831 -27.622728 0.162985 22.377909 12.969742 1.105229 4.799224 6.071209 13.106463 -7.517728 -3.004762 2.367055 -0.758476 0.000000 0.000000 0.000000 8.225251 -32.624477 -18.295654 17.043888 -4.615484 14.692707 13.880602 -0.627462 10.511588 1.609333 -1.382982 0.670682 0.000000 0.000000 0.000000 12.643802 -0.742407 9.520702 -9.139100 -6.026616 3.235436 36.800701 -14.658469 30.406179 0.000000 0.000000 0.000000 14.140508 -1.278977 9.658278 2.389947 -19.942419 -11.618400 0.858846 -1.081454 -0.409842 -35.162893 -27.555459 -57.215610 -1.030208 -15.023177 -1.482602 0.000000 0.000000 0.000000 12.225413 -1.090316 9.960559 2.584064 7.089018 10.973630 -4.499520 2.776818 -0.737152 0.846323 40.515214 26.892519 1.773218 23.282856 1.179812 0.000000 0.000000 0.000000 
9.519969 107.944550 -6.216557 0.000000 0.000000 0.000000 9.863026 -30.515817 -17.307382 -30.252721 -4.648202 27.616712 36.643593 3.743431 9.202678 -8.420212 27.613283 -16.016695 -0.512298 0.165481 -0.374005 0.000000 0.000000 0.000000 11.827290 -29.780779 -18.004862 -27.583603 0.121434 22.320514 13.085216 1.058889 4.787221 5.973398 12.864672 -7.615850 -2.990483 2.346656 -0.756516 0.000000 0.000000 0.000000 8.196396 -32.194018 -18.274415 16.931977 -4.670743 14.840806 13.776431 -0.686346 10.575498 1.589054 -1.396017 0.677141 0.000000 0.000000 0.000000 12.553559 -0.779542 9.579748 -9.033379 -5.988933 3.270163 36.958246 -14.815432 30.401346 0.000000 0.000000 0.000000 14.020295 -1.308308 9.700421 2.374282 -19.953660 -11.726997 0.821828 -1.110535 -0.388957 -34.768542 -27.829667 -57.483207 -1.130648 -15.203473 -1.510799 0.000000 0.000000 0.000000 12.133406 -1.123757 10.008079 2.729490 7.277393 10.439809 -4.410267 2.817595 -0.806095 1.181449 40.309878 27.175535 1.764416 23.790363 1.107160 0.000000 0.000000 0.000000 
9.305223 107.985962 -6.146904 0.000000 0.000000 0.000000 9.829299 -30.015420 -17.276619 -30.346626 -4.632787 27.644909 36.546225 3.651555 9.233279 -8.371450 27.241926 -16.014970 -0.416757 0.159860 -0.399577 0.000000 0.000000 0.000000 11.798826 -29.226636 -17.973025 -27.501666 0.120652 22.246840 13.171275 0.993227 4.765941 5.831546 12.565988 -7.764775 -2.901056 2.322217 -0.737580 0.000000 0.000000 0.000000 8.166316 -31.711964 -18.241502 16.806331 -4.723864 14.997511 13.665876 -0.744075 10.646977 1.562945 -1.409209 0.669900 0.000000 0.000000 0.000000 12.461766 -0.817814 9.648374 -8.944003 -5.967541 3.306837 37.128037 -14.980316 30.387798 0.000000 0.000000 0.000000 13.894375 -1.334543 9.752206 2.367404 -19.944642 -11.814220 0.794881 -1.139416 -0.384298 -34.296887 -28.054614 -57.741183 -1.234099 -15.384938 -1.538697 0.000000 0.000000 0.000000 12.039761 -1.157899 10.060859 2.885371 7.424441 9.895215 -4.330157 2.846298 -0.860060 1.508005 40.148077 27.461387 1.760970 24.303977 1.046003 0.000000 0.000000 0.000000 
